<svg height="16" viewBox="0 0 16 16" width="16" xmlns="http://www.w3.org/2000/svg"><path d="m7 1v2h2v-2zm-2.4082031.7148438-1.8769531.6933593.6933593 1.8769531 1.8769531-.6933593zm6.8164061 0-.693359 1.8769531 1.876953.6933593.693359-1.8769531zm2.455078 3.2753906c-.0356.00123-.07187.00485-.107422.00977h-11.755859c-.6242482.0131666-1.0866536.6449893-1 1.2441362.0038 1.2832485-.00749761 2.566653.0058594 3.8496094.0772579.58275.6693987.984901 1.2382812.90625 3.949912-.0038 7.8999894.007441 11.8496094-.005859.582748-.077295.984901-.669399.90625-1.2382816-.0038-1.2832486.007495-2.5666533-.005859-3.8496094-.07243-.5463291-.596812-.9344929-1.13086-.9160156zm-10.863281 2.0097656h10v2h-10zm.4082031 4.714844-.6933593 1.876953 1.8769531.693359.6933593-1.876953zm9.1835939 0-1.876953.693359.693359 1.876953 1.876953-.693359zm-5.591797 1.285156v2h2v-2z" fill="#fc7f7f"/></svg>